# xmcd
#
# Track frame offsets: 
#        150
#        16990
#        36005
#        52846
#
# Disc length: 954 seconds
#
# Revision: 4
# Processed by: cddbd v1.5.2PL0 Copyright (c) Steve Scherf et al.
# Submitted via: ExactAudioCopyFreeDBPlugin 1.0
#
DISCID=2303b804
DTITLE=美郷あき - BLOOD QUEEN
DYEAR=2007
DGENRE=Anime
TTITLE0=BLOOD QUEEN
TTITLE1=忘却バタフライ
TTITLE2=BLOOD QUEEN (off vocal)
TTITLE3=忘却バタフライ (off vocal)
EXTD=YEAR: 2007
EXTT0=
EXTT1=
EXTT2=
EXTT3=
PLAYORDER=
